<?xml version="1.0"?>
<svg xmlns="http://www.w3.org/2000/svg" id="Outline" viewBox="0 0 512 512" width="512" height="512"><path d="M488,144H448V120a8,8,0,0,0-8-8H392a8,8,0,0,0-8,8v24H352V120a7.98,7.98,0,0,0-3-6.243l0,0-40-32A8,8,0,0,0,304,80H208a8,8,0,0,0-5,1.753L165.194,112H120a8,8,0,0,0-8,8v24H96V120a8,8,0,0,0-8-8H40a8,8,0,0,0-8,8v24H24a8,8,0,0,0-8,8V424a8,8,0,0,0,8,8H488a8,8,0,0,0,8-8V152A8,8,0,0,0,488,144Zm-88-16h32v16H400ZM176,144V128H336v16Zm34.806-48h90.388l20,16H190.806ZM128,128h32v16H128Zm-80,0H80v16H48Zm432,32v80H357.179a111.978,111.978,0,0,0-202.358,0H32V160ZM198.369,384H32V256H148.666a111.964,111.964,0,0,0,49.7,128ZM160,288a96,96,0,1,1,96,96A96.108,96.108,0,0,1,160,288Zm208,0a111.64,111.64,0,0,0-4.666-32H480V384H313.631A112.046,112.046,0,0,0,368,288ZM32,416V400H480v16Z"/><path d="M256,208a80,80,0,1,0,80,80A80.091,80.091,0,0,0,256,208Zm0,144a64,64,0,1,1,64-64A64.072,64.072,0,0,1,256,352Z"/><path d="M256,256a32,32,0,1,0,32,32A32.036,32.036,0,0,0,256,256Zm0,48a16,16,0,1,1,16-16A16.019,16.019,0,0,1,256,304Z"/><path d="M56,224H88a8,8,0,0,0,8-8V184a8,8,0,0,0-8-8H56a8,8,0,0,0-8,8v32A8,8,0,0,0,56,224Zm8-32H80v16H64Z"/><circle cx="120" cy="200" r="8"/><circle cx="344" cy="288" r="8"/><path d="M376,192h80a8,8,0,0,0,0-16H376a8,8,0,0,0,0,16Z"/><path d="M456,208H392a8,8,0,0,0,0,16h64a8,8,0,0,0,0-16Z"/></svg>
